<svg id="Layer_1" data-name="Layer 1" xmlns="http://www.w3.org/2000/svg" viewBox="0 0 329.7 118.77"><defs><style>.cls-1,.cls-7{fill:#26225b;}.cls-2{fill:#fff;}.cls-3{font-size:65.66px;fill:#f79325;}.cls-3,.cls-4{font-family:ITCAvantGardeStd-Demi, ITC Avant Garde Gothic Std;font-weight:300;}.cls-4{font-size:47.66px;fill:#2b2867;}.cls-5{letter-spacing:-0.04em;}.cls-6{letter-spacing:0em;}.cls-7{font-size:27.81px;font-family:ITCAvantGardeStd-Bk, ITC Avant Garde Gothic Std;}.cls-8{letter-spacing:-0.03em;}.cls-9{letter-spacing:0.03em;}</style></defs><title>08fmlogo</title><path class="cls-1" d="M360.11,172.3H366v-4.88H247.09v5a1.83,1.83,0,0,1,.32-.07h8.1a2.12,2.12,0,0,1,2.12,2.13v6a2.12,2.12,0,0,1-2.12,2.13h-8.1a1.83,1.83,0,0,1-.32-.07v80.47c.11,0,.21-.06.32-.06h8.1a2.12,2.12,0,0,1,2.12,2.12v6a2.12,2.12,0,0,1-2.12,2.12h-8.1a1.83,1.83,0,0,1-.32-.07v5.38H366v-5.31h-5.9A2.12,2.12,0,0,1,358,271v-6a2.12,2.12,0,0,1,2.12-2.12H366V182.52h-5.9a2.12,2.12,0,0,1-2.12-2.13v-6A2.12,2.12,0,0,1,360.11,172.3Z" transform="translate(-247.09 -167.42)"/><rect class="cls-2" x="16.72" y="95.44" width="12.34" height="10.21" rx="2.12"/><rect class="cls-2" x="16.72" y="4.89" width="12.34" height="10.21" rx="2.12"/><rect class="cls-2" x="35.56" y="95.44" width="12.34" height="10.21" rx="2.12"/><rect class="cls-2" x="35.56" y="4.89" width="12.34" height="10.21" rx="2.12"/><rect class="cls-2" x="54.39" y="95.44" width="12.34" height="10.21" rx="2.12"/><rect class="cls-2" x="54.39" y="4.89" width="12.34" height="10.21" rx="2.12"/><rect class="cls-2" x="73.23" y="95.44" width="12.34" height="10.21" rx="2.12"/><rect class="cls-2" x="73.23" y="4.89" width="12.34" height="10.21" rx="2.12"/><rect class="cls-2" x="92.06" y="95.44" width="12.34" height="10.21" rx="2.12"/><rect class="cls-2" x="92.06" y="4.89" width="12.34" height="10.21" rx="2.12"/><path class="cls-2" d="M368.24,187.44a33.51,33.51,0,0,0-3.78-.23h-102a5.86,5.86,0,0,0-5.86,5.86v60.24a5.86,5.86,0,0,0,5.86,5.87h102a36,36,0,0,0,3.78-.23Z" transform="translate(-247.09 -167.42)"/><text class="cls-3" transform="translate(31.41 80.43)">FM</text><text class="cls-4" transform="translate(126.23 81.05)">SQ<tspan class="cls-5" x="68.11" y="0">U</tspan><tspan class="cls-6" x="98.52" y="0">ARE </tspan></text><text class="cls-7" transform="translate(126.82 111.24)">En<tspan class="cls-8" x="32.79" y="0">t</tspan><tspan x="40.69" y="0">e</tspan><tspan class="cls-9" x="58.15" y="0">r</tspan><tspan class="cls-8" x="67.86" y="0">t</tspan><tspan x="75.76" y="0">ainment</tspan></text></svg>