<svg id="Layer_1" data-name="Layer 1" xmlns="http://www.w3.org/2000/svg" viewBox="0 0 315.69 111.66"><defs><style>.cls-1{fill:#26225b;}.cls-2{fill:#fff;}.cls-3{fill:#f79325;}.cls-4{fill:#2b2867;}</style></defs><title>08fmlogo</title><path class="cls-1" d="M360.11,172.3H366v-4.88H247.09v5a1.83,1.83,0,0,1,.32-.07h8.1a2.12,2.12,0,0,1,2.12,2.13v6a2.12,2.12,0,0,1-2.12,2.13h-8.1a1.83,1.83,0,0,1-.32-.07v80.47c.11,0,.21-.06.32-.06h8.1a2.12,2.12,0,0,1,2.12,2.12v6a2.12,2.12,0,0,1-2.12,2.12h-8.1a1.83,1.83,0,0,1-.32-.07v5.38H366v-5.31h-5.9A2.12,2.12,0,0,1,358,271v-6a2.12,2.12,0,0,1,2.12-2.12H366V182.52h-5.9a2.12,2.12,0,0,1-2.12-2.13v-6A2.12,2.12,0,0,1,360.11,172.3Z" transform="translate(-247.09 -167.42)"/><rect class="cls-2" x="16.72" y="95.44" width="12.34" height="10.21" rx="2.12"/><rect class="cls-2" x="16.72" y="4.89" width="12.34" height="10.21" rx="2.12"/><rect class="cls-2" x="35.56" y="95.44" width="12.34" height="10.21" rx="2.12"/><rect class="cls-2" x="35.56" y="4.89" width="12.34" height="10.21" rx="2.12"/><rect class="cls-2" x="54.39" y="95.44" width="12.34" height="10.21" rx="2.12"/><rect class="cls-2" x="54.39" y="4.89" width="12.34" height="10.21" rx="2.12"/><rect class="cls-2" x="73.23" y="95.44" width="12.34" height="10.21" rx="2.12"/><rect class="cls-2" x="73.23" y="4.89" width="12.34" height="10.21" rx="2.12"/><rect class="cls-2" x="92.06" y="95.44" width="12.34" height="10.21" rx="2.12"/><rect class="cls-2" x="92.06" y="4.89" width="12.34" height="10.21" rx="2.12"/><path class="cls-2" d="M368.24,187.44a33.51,33.51,0,0,0-3.78-.23h-102a5.86,5.86,0,0,0-5.86,5.86v60.24a5.86,5.86,0,0,0,5.86,5.87h102a36,36,0,0,0,3.78-.23Z" transform="translate(-247.09 -167.42)"/><path class="cls-3" d="M283.09,199.26H308.9v8.6h-16v11.62H308.5v8.6H292.88v19.76h-9.79Z" transform="translate(-247.09 -167.42)"/><path class="cls-3" d="M315.86,247.84V199.26h13.2l12.47,34.86,12.28-34.86h13.26v48.58H358l.26-38.93-13.59,38.93h-6.43l-13.66-38.93.26,38.93Z" transform="translate(-247.09 -167.42)"/><path class="cls-4" d="M381.8,237.5c.24,4.77,3.43,5.67,5,5.67a4.76,4.76,0,0,0,4.81-4.67c0-3-2.52-3.76-7.43-5.72-2.67-.95-8.82-3.14-8.82-9.82s6-10.44,11.68-10.44c4.67,0,10.86,2.48,11.15,10.3h-7c-.28-1.62-.9-4.34-4.38-4.34a4.11,4.11,0,0,0-4.34,4c-.05,2.63,1.86,3.29,7.82,5.77,5.38,2.34,8.39,4.91,8.39,9.92,0,5.67-3.48,11-11.78,11-8,0-12.15-4.81-12.1-11.63Z" transform="translate(-247.09 -167.42)"/><path class="cls-4" d="M441.1,249.08c-.81,0-1.62,0-2.48,0-4.48-.19-6.72-1.77-8-2.86a18.53,18.53,0,0,1-10.15,2.95,18.31,18.31,0,1,1,18.59-18.49,16.63,16.63,0,0,1-3.72,11.1c1.52,1.15,3.1,1.48,5.77,1.62Zm-20.74-30.31a11,11,0,0,0-11,9.39,10.45,10.45,0,0,0,0,2.52,18.61,18.61,0,0,1,5.91-1.09,14.15,14.15,0,0,1,8.24,2.43,47.07,47.07,0,0,1,6.25,5.19,10.26,10.26,0,0,0,2.14-6.57,11.42,11.42,0,0,0-11.53-11.87Zm.1,24.12a9.93,9.93,0,0,0,5.1-1.29,33.34,33.34,0,0,0-3.72-3.48,12.14,12.14,0,0,0-11.58-1.72,11.25,11.25,0,0,0,10.15,6.49Z" transform="translate(-247.09 -167.42)"/><path class="cls-4" d="M451.77,213.19v21.69a10.73,10.73,0,0,0,1,5.34,5.22,5.22,0,0,0,4.77,2.67,5.07,5.07,0,0,0,4.72-2.53c1-1.71,1-3.57,1-5.48V213.19h7.1v21.69c0,5.24-1,8.39-3.72,10.87a12.68,12.68,0,0,1-9.05,3.38c-2.53,0-6.58-.67-9.2-3.38-3.25-3.1-3.72-6.15-3.72-10.87V213.19Z" transform="translate(-247.09 -167.42)"/><path class="cls-4" d="M479.94,248.46h-7.72l14.3-35.27h6.24l14,35.27H499l-2.57-6.91H482.47Zm9.39-26.88-5,14.3h10.15Z" transform="translate(-247.09 -167.42)"/><path class="cls-4" d="M510.3,213.19H521c5.48,0,8.63.86,10.53,2.24a12.43,12.43,0,0,1,2.58,16.16,9.23,9.23,0,0,1-5.82,3.81l7.87,13.06H528.7l-9.49-16.39h1.39c2.33,0,4.86-.15,6.34-1.29a6.6,6.6,0,0,0,2.24-5.15,6.07,6.07,0,0,0-2.62-5.1,9.42,9.42,0,0,0-5-1.1H517.4v29h-7.1Z" transform="translate(-247.09 -167.42)"/><path class="cls-4" d="M540.38,213.19h19.78v6.24H547.48v8h12.44v6.25H547.48v8.53h12.68v6.24H540.38Z" transform="translate(-247.09 -167.42)"/><path class="cls-1" d="M376,258.07h11.4v2h-9.12v7.15h9.07v2h-9.07v7.35h9.12v2H376Z" transform="translate(-247.09 -167.42)"/><path class="cls-1" d="M391,263.69h2c0,.83,0,1.67,0,2.67.86-1.95,2.89-3.14,5.56-3.09,4.65.06,6.29,3.23,6.29,6.87v8.52h-2v-8.1c0-3.23-1.45-5.42-4.81-5.37-3.09,0-4.87,1.89-4.87,5v8.46H391Z" transform="translate(-247.09 -167.42)"/><path class="cls-1" d="M409.87,265.33h-2.95v-1.64h2.95v-5.62h2v5.62h3.28v1.64H411.9v13.33h-2Z" transform="translate(-247.09 -167.42)"/><path class="cls-1" d="M417.52,271.76a5.7,5.7,0,0,0,5.84,5.53,5.55,5.55,0,0,0,5.15-3.08h2.14a8,8,0,0,1-3,3.64,7.81,7.81,0,0,1-4.26,1.22,7.73,7.73,0,0,1-7.9-7.87,7.86,7.86,0,1,1,15.69.56Zm11.6-1.64a5.83,5.83,0,0,0-11.57,0Z" transform="translate(-247.09 -167.42)"/><path class="cls-1" d="M434.07,263.69H436v2.45a5.09,5.09,0,0,1,4.78-2.87v2h-.2c-2.89,0-4.5,1.81-4.5,5.2v8.16h-2Z" transform="translate(-247.09 -167.42)"/><path class="cls-1" d="M444.94,265.33H442v-1.64h2.95v-5.62h2v5.62h3.28v1.64H447v13.33h-2Z" transform="translate(-247.09 -167.42)"/><path class="cls-1" d="M466.69,278.66h-2.06v-3.09a6.65,6.65,0,0,1-6.12,3.5,7.9,7.9,0,0,1,0-15.8,6.58,6.58,0,0,1,6.12,3.56v-3.14h2.06Zm-13.91-7.46a5.84,5.84,0,0,0,6,5.95,5.61,5.61,0,0,0,5.4-3.64,5.79,5.79,0,0,0,.5-2.37,5.38,5.38,0,0,0-.47-2.39,5.78,5.78,0,0,0-5.48-3.59,5.87,5.87,0,0,0-6,6Z" transform="translate(-247.09 -167.42)"/><path class="cls-1" d="M470.69,258.07h2.06v2.87h-2.06Zm0,5.62h2.06v15h-2.06Z" transform="translate(-247.09 -167.42)"/><path class="cls-1" d="M476.76,263.69h1.94c0,.83,0,1.67,0,2.67.87-1.95,2.9-3.14,5.57-3.09,4.64.06,6.28,3.23,6.28,6.87v8.52h-2v-8.1c0-3.23-1.44-5.42-4.81-5.37-3.09,0-4.87,1.89-4.87,5v8.46h-2.05Z" transform="translate(-247.09 -167.42)"/><path class="cls-1" d="M494.5,263.69h1.95v2.36a5.35,5.35,0,0,1,4.72-2.78,5.26,5.26,0,0,1,4.09,1.7,8.12,8.12,0,0,1,1,1.56,6.86,6.86,0,0,1,1.08-1.59,5.65,5.65,0,0,1,4.12-1.67,5.54,5.54,0,0,1,4,1.5c1.31,1.31,1.7,2.93,1.7,5.57v8.32h-2.06v-8.24a5.91,5.91,0,0,0-1.11-4,3.56,3.56,0,0,0-3-1.25,3.9,3.9,0,0,0-3.28,1.56,5.3,5.3,0,0,0-.89,3.59v8.32h-2.06v-8.32a5.64,5.64,0,0,0-.78-3.56,3.84,3.84,0,0,0-3.28-1.59,3.69,3.69,0,0,0-3.17,1.53,5.79,5.79,0,0,0-1,3.59v8.35H494.5Z" transform="translate(-247.09 -167.42)"/><path class="cls-1" d="M522,271.76a5.7,5.7,0,0,0,5.85,5.53,5.54,5.54,0,0,0,5.14-3.08h2.14a7.92,7.92,0,0,1-3,3.64,8.15,8.15,0,1,1,3.53-6.09Zm11.6-1.64a5.83,5.83,0,0,0-11.57,0Z" transform="translate(-247.09 -167.42)"/><path class="cls-1" d="M538.55,263.69h2c0,.83,0,1.67,0,2.67.86-1.95,2.89-3.14,5.56-3.09,4.65.06,6.29,3.23,6.29,6.87v8.52h-2v-8.1c0-3.23-1.45-5.42-4.81-5.37-3.09,0-4.87,1.89-4.87,5v8.46h-2.06Z" transform="translate(-247.09 -167.42)"/><path class="cls-1" d="M557.46,265.33h-3v-1.64h3v-5.62h2v5.62h3.29v1.64h-3.29v13.33h-2Z" transform="translate(-247.09 -167.42)"/></svg>